<svg xmlns="http://www.w3.org/2000/svg" height="120" viewBox="0 0 1000 120"><defs><linearGradient id="a" x1="0%" x2="100%" y1="0%" y2="0%"><stop offset="0%" style="stop-color:#d32f2f;stop-opacity:1"/><stop offset="100%" style="stop-color:#111;stop-opacity:1"/></linearGradient></defs><rect width="1000" height="120" fill="url(#a)" rx="10"/><path d="M197.318.005c-.085.085 1.27 5.215 2.647 10.026l.395 1.38 1.224-.17c.674-.095 5.791-.916 11.372-1.826 5.58-.91 11.581-1.855 13.334-2.1 1.753-.246 3.187-.543 3.187-.661s-.087-.216-.195-.218c-.107-.002-4.41-.886-9.561-1.964-13.785-2.884-22.29-4.58-22.403-4.467zm-1.953.606c-.088-.014-2.84 2.325-6.115 5.198l-10.637 9.333a911.558 911.558 0 0 1-6.553 5.704c-1.028.877-1.877 1.677-1.887 1.778-.014.16.887-.142 3.983-1.337.41-.159 1.254-.735 1.875-1.28 2.345-2.066 6.64-3.725 10.544-4.074 1.52-.136 2.98-.583 6.954-2.13 4.97-1.933 5.028-1.964 4.868-2.643-.202-.859-1.846-6.927-2.434-8.988-.241-.845-.51-1.547-.598-1.561zm38.364 7.273a1.905 1.905 0 0 0-.15.014c-.324.046-3.106.496-6.183.993s-9.926 1.563-15.22 2.369c-5.295.806-9.802 1.521-10.015 1.59-.275.087-.05.403.775 1.083a583.45 583.45 0 0 1 4.881 4.148l3.72 3.187 3.831-1.716a933.085 933.085 0 0 0 7.735-3.514c3.513-1.62 4.065-1.8 5.529-1.797l1.626.002v22.81l4.486 3.568-.008.027.018.02c.057.027.093.04.104.027.137-.137-.423-31.588-.576-32.334-.072-.351-.227-.49-.553-.476zm2.562 5.185c-.117.117.494 28.58.616 28.717.146.164 9.868 2.052 10.05 1.951.096-.053-.212-1.238-.686-2.631-3.98-11.708-9.842-28.175-9.98-28.037zm-38.171.986c-.432.014-3.944 1.295-4.917 1.804l-.754.395 1.407.337c.775.185 1.76.486 2.188.668.43.182.866.248.97.147.104-.1.427-.873.717-1.715.29-.843.483-1.576.43-1.629-.007-.006-.02-.007-.041-.007zm2.175.112c-.226.014-.402.471-.851 1.894-.367 1.162-.668 2.198-.668 2.3 0 .104.411.41.913.68 1.374.74 3.452 3.08 4.23 4.765.978 2.115 1.141 6.012.36 8.575-1.389 4.563-4.636 7.625-14.433 13.608l-4.897 2.991 6.267.07c5.223.06 6.396.003 7.04-.33.955-.495 1.48-1.474 1.707-3.186.16-1.2.242-1.329.957-1.472 1.185-.236 4.571-.187 4.73.07.077.124-.02 1.09-.214 2.146-.614 3.334-.699 4.384-.344 4.263.176-.06 3.012-.878 6.303-1.819 3.291-.94 6.365-1.832 6.83-1.982l.845-.272V26.213h-7.525l-.256-.976c-.14-.536-.332-1.294-.426-1.683-.11-.46-1.095-1.511-2.811-3.004-2.382-2.071-6.372-5.405-7.503-6.267-.098-.076-.179-.12-.254-.116zm-194.07 4.24c-5.343 0-6.225.054-6.225.389 0 .213.468 1.62 1.04 3.125l1.041 2.737V53.75l-1.048 2.928c-.815 2.273-.975 2.976-.716 3.143.184.118 2.968.185 6.187.15l5.854-.066.13-10.538.13-10.538 2.383 4.033a1541.27 1541.27 0 0 1 5.251 8.977c1.578 2.719 3.315 5.646 3.862 6.505l.993 1.56 5.967.07c3.28.04 6.067-.033 6.192-.156.128-.129-.23-1.44-.828-3.032l-1.054-2.807V24.394l1.041-2.737c.572-1.505 1.04-2.855 1.04-3 0-.17-2.15-.237-6.179-.192l-6.179.07-.13 10.797-.13 10.798-.688-1.17c-.738-1.256-2.815-4.899-8.272-14.506l-3.436-6.05zm59.714 0c-3.48 0-6.383.09-6.45.2-.068.109.848 1.484 2.034 3.057l2.157 2.858 3.305 9.367a5701.09 5701.09 0 0 0 5.65 15.936l2.345 6.57-.54 1.595c-.296.878-.475 1.698-.398 1.822.077.125 2.408.226 5.18.226 4.2 0 5.106-.067 5.441-.402.222-.222.57-.954.776-1.627.206-.673 2.444-7.136 4.973-14.363 2.53-7.227 5.222-14.955 5.984-17.173.762-2.218 1.679-4.872 2.036-5.898.358-1.026.583-1.934.5-2.017-.184-.184-12.413-.204-12.596-.02-.072.072.052.835.276 1.694.375 1.437.373 1.664-.026 2.797-.24.678-1.686 4.834-3.215 9.234-1.53 4.4-2.854 8-2.943 8-.09 0-1.074-2.606-2.188-5.79-3.715-10.614-5.458-15.411-5.717-15.74-.193-.244-1.833-.325-6.584-.325Zm51.401 0c-9.42 0-14.05.089-14.05.267 0 .147.235.933.521 1.747.5 1.424.52 2.148.52 18.817 0 16.62-.02 17.398-.516 18.839-.285.826-.453 1.605-.375 1.732.078.126 5.13.23 11.3.23h11.157l1.356 1.434c.729.77 1.365 1.366 1.438 1.35l.002-.001h.001v-.001c.048-.047.727-2.528 1.51-5.512.782-2.984 1.362-5.523 1.289-5.641-.073-.119-3.873-.216-8.444-.216h-8.31v-5.464h8.219l1.051-3.968c.579-2.182 1.006-4.055.95-4.163-.057-.107-2.38-.195-5.162-.195h-5.058v-5.303c0-4.833.04-5.315.455-5.423.25-.067 2.739-.073 5.529-.013l5.073.102 1.451 1.429 1.45 1.429.437-1.769c.24-.972.846-3.333 1.346-5.246.5-1.913.91-3.698.91-3.968 0-.473-.465-.49-14.05-.49zm24.522.06c-3.47-.04-6.309.014-6.309.116 0 .102.468 1.383 1.04 2.847l1.041 2.662v29.995l-1.035 2.748c-.57 1.512-.973 2.85-.896 2.976.078.124 5.205.227 11.394.227h11.253l1.268 1.47 1.268 1.469.357-1.014c.196-.559.882-3.038 1.524-5.51.641-2.474 1.096-4.61 1.01-4.75-.095-.153-3.149-.251-7.813-.251h-7.658l-.067-16.457-.067-16.458zm-86.249.105c-.876-.235-13.283-.189-13.66.053-.248.157-.077.868.715 2.971l1.042 2.765v27.602l-1.04 3.714c-.572 2.042-1.04 3.792-1.04 3.89-.002.353 1.038.414 7.617.444 5.448.026 6.733-.04 6.844-.326.075-.195-.339-2.163-.919-4.372l-1.055-4.017V24.747l1.04-2.761c.573-1.52 1.042-2.873 1.042-3.008 0-.136-.264-.318-.586-.404zM187.2 23.124c-.344.003-.741.02-1.224.053-3.596.223-5.884 1.472-7.075 3.863-.564 1.131-.678 1.716-.678 3.49v2.133l-3.122.187c-1.717.103-3.122.249-3.122.324 0 .28 8.07 12.296 8.26 12.296.108 0 1.66-1.098 3.449-2.44 6.457-4.842 9.106-7.651 10.116-10.726 1.347-4.103-.087-7.192-4.034-8.687-.978-.37-1.537-.5-2.57-.49zm-14.643.769c-.277.005-1.003.244-2.397.758-3.534 1.303-3.415.913-1.246 4.1l1.889 2.775.183-1.03c.1-.567.189-1.41.197-1.875.016-.894.948-3.875 1.383-4.424.16-.202.18-.308-.01-.304zm-4.77 6.376h-.001a.086.086 0 0 0-.004.002c-.064.04.067.808.317 1.832.892 3.668 4.08 17.115 4.267 17.997.21 1-.136 1.15 3.838-1.663 1.325-.939 2.38-1.818 2.342-1.954-.07-.257-10.376-15.804-10.74-16.201-.008-.007-.014-.014-.02-.014zm62.475 9.217c.002 1.46.004 2.742.008 3.87l3.602-.998zm6.61 4.243c-.188 0-.334.083-.507.326l-3.71 8.473c1.003.254 2.268.483 3.532.62l1.635.178-.074 2.64v.007l8.018-9.178v-.002c.484-.622.755-1.028.7-1.078-.113-.104-2.138-.56-4.5-1.015a896.93 896.93 0 0 1-4.89-.949c-.075-.013-.142-.027-.204-.027zm-2.786.514-.004.007-3.801.95c.04 5.745.147 6.323.444 6.592.046.04.107.084.181.127l3.204-7.615a.109.109 0 0 0-.024-.06zm-15.31 4.154a.608.608 0 0 0-.16.034c-.25.073-1.158.328-2.016.568-3.867 1.078-11.239 3.26-11.728 3.472-.462.2-.608.689-1.006 3.382L203.399 59h-1.928c-1.816 0-1.941-.04-2.174-.65l-.248-.651h-9.465l1.409.977c.775.538 4.863 3.299 9.084 6.136a3561.32 3561.32 0 0 1 13.002 8.78c2.93 1.991 5.447 3.621 5.594 3.621.148 0 .845-1.317 1.548-2.927.704-1.61 2.49-5.604 3.968-8.875 1.478-3.27 2.687-6.11 2.687-6.31 0-.3-1.291-.361-7.676-.361h-7.675v-5.384l2.563-.31c4.667-.566 4.982-.785 4.982-3.448 0-.942-.046-1.207-.295-1.199zm-32.777 9.3c-.251 0-1.313.673-2.36 1.496a334.459 334.459 0 0 1-3.334 2.586c-.787.6-1.887 1.483-2.443 1.965l-1.012.876 4.524 1.453c4.52 1.45 8.616 2.737 15.972 5.018 2.147.665 6.596 2.074 9.887 3.13 6.913 2.217 6.114 1.977 6.114 1.842 0-.214-3.768-2.8-19.886-13.65-3.853-2.594-7.211-4.716-7.462-4.716zm-11.817.06c-.035.04.207 1.242.538 2.673.332 1.431.612 2.641.622 2.69.05.225.775-.278 3.885-2.69l3.355-2.602-4.168-.072c-2.292-.04-4.196-.04-4.232 0zm61.233.89-1.983.033-4.242.072-1.139 2.4c-1.006 2.123-3.495 7.67-4.842 10.791-.25.58-.416 1.06-.384 1.104h.001v.001h.004l.003-.001z" style="fill:#fff" transform="translate(376.513 21.394)"/></svg>